<svg width="28" height="21" viewBox="0 0 28 21" fill="none" xmlns="http://www.w3.org/2000/svg">
<path d="M25.6477 0.0425238L1.34841 0.305493C1.1024 0.308919 0.861978 0.378661 0.65302 0.507214C0.444063 0.635766 0.274484 0.818259 0.162537 1.03505C0.0505924 1.25184 0.000515806 1.49472 0.0177033 1.73755C0.034889 1.98037 0.118686 2.21395 0.260073 2.41313L12.5976 19.6449C13.1089 20.3594 14.3212 20.3463 14.8183 19.6209L26.78 2.12613C26.9185 1.92434 26.9984 1.68887 27.0111 1.44532C27.0238 1.20176 26.9689 0.959436 26.8521 0.744663C26.7354 0.529889 26.5614 0.350883 26.3491 0.227094C26.1367 0.103307 25.8942 0.039473 25.6477 0.0425238Z" fill="black"/>
</svg>
