<svg width="27" height="21" viewBox="0 0 27 21" fill="none" xmlns="http://www.w3.org/2000/svg">
<path d="M1.35081 20.0267H25.6515C25.8975 20.026 26.1387 19.9588 26.349 19.8325C26.5594 19.7063 26.7309 19.5256 26.8452 19.3101C26.9595 19.0945 27.0122 18.8522 26.9976 18.6092C26.9831 18.3662 26.9018 18.1317 26.7626 17.931L14.6122 0.566696C14.1087 -0.153254 12.8963 -0.153254 12.3914 0.566696L0.241081 17.931C0.100441 18.1313 0.0179662 18.3659 0.00261762 18.6093C-0.0127309 18.8527 0.0396339 19.0956 0.154023 19.3116C0.268412 19.5276 0.440449 19.7085 0.651445 19.8346C0.86244 19.9607 1.10432 20.0271 1.35081 20.0267Z" fill="black"/>
</svg>
