<svg width="60" height="60" viewBox="0 0 60 60" fill="none" xmlns="http://www.w3.org/2000/svg">
<path d="M1.14609 53.3203C-0.382031 54.8485 -0.382031 57.3257 1.14609 58.8539C2.67422 60.382 5.15186 60.382 6.67998 58.8539L1.14609 53.3203ZM32.7668 32.7668C34.295 31.2387 34.295 28.7614 32.7668 27.2333C31.2387 25.7051 28.7614 25.7051 27.2333 27.2333L32.7668 32.7668ZM27.2333 27.2333C25.7051 28.7614 25.7051 31.2387 27.2333 32.7668C28.7614 34.295 31.2387 34.295 32.7668 32.7668L27.2333 27.2333ZM58.8539 6.67999C60.382 5.15186 60.382 2.67422 58.8539 1.14609C57.3257 -0.382031 54.8485 -0.382031 53.3203 1.14609L58.8539 6.67999ZM32.7668 27.2333C31.2387 25.7051 28.7614 25.7051 27.2333 27.2333C25.7051 28.7614 25.7051 31.2387 27.2333 32.7668L32.7668 27.2333ZM53.3203 58.8539C54.8485 60.382 57.3257 60.382 58.8539 58.8539C60.382 57.3257 60.382 54.8485 58.8539 53.3203L53.3203 58.8539ZM27.2333 32.7668C28.7614 34.295 31.2387 34.295 32.7668 32.7668C34.295 31.2387 34.295 28.7614 32.7668 27.2333L27.2333 32.7668ZM6.67998 1.14609C5.15186 -0.382031 2.67422 -0.382031 1.14609 1.14609C-0.382031 2.67422 -0.382031 5.15186 1.14609 6.67999L6.67998 1.14609ZM6.67998 58.8539L32.7668 32.7668L27.2333 27.2333L1.14609 53.3203L6.67998 58.8539ZM32.7668 32.7668L58.8539 6.67999L53.3203 1.14609L27.2333 27.2333L32.7668 32.7668ZM27.2333 32.7668L53.3203 58.8539L58.8539 53.3203L32.7668 27.2333L27.2333 32.7668ZM32.7668 27.2333L6.67998 1.14609L1.14609 6.67999L27.2333 32.7668L32.7668 27.2333Z" fill="black"/>
</svg>
