<svg width="35" height="35" viewBox="0 0 35 35" fill="none" xmlns="http://www.w3.org/2000/svg">
<path d="M17.4965 34.9978C16.7094 34.9975 15.9232 34.9466 15.1436 34.8453C13.6643 34.6536 12.2165 34.2898 10.8339 33.7623C7.95403 32.6569 5.44371 30.8514 3.56393 28.5332C2.60994 27.3691 1.83046 26.0889 1.24704 24.728C0.126074 22.1023 -0.248136 19.2504 0.160811 16.4496C0.569758 13.6488 1.74794 10.9945 3.58074 8.74495C4.53447 7.57322 5.65482 6.5284 6.91082 5.63937C7.43405 5.29454 8.08011 5.15271 8.71303 5.24374C9.34596 5.33476 9.9164 5.65154 10.3043 6.12741C10.6922 6.60328 10.8673 7.20113 10.7928 7.79514C10.7183 8.38916 10.4 8.93301 9.90478 9.31225C9.00609 9.9471 8.20404 10.6931 7.52066 11.5299C6.85867 12.3437 6.31156 13.2338 5.89283 14.178C5.48266 15.1063 5.20185 16.08 5.05731 17.0751C4.76097 19.0879 5.03071 21.138 5.84001 23.0239C6.25743 23.9959 6.81477 24.9102 7.49665 25.7416C8.17877 26.5832 8.97998 27.3345 9.87837 27.9749C10.7469 28.593 11.6976 29.1033 12.7067 29.4929C13.7054 29.8752 14.7516 30.1389 15.8207 30.2777C16.8812 30.4149 17.9565 30.4209 19.0187 30.2957C20.1056 30.1653 21.1705 29.9068 22.1879 29.5266C24.2856 28.7336 26.1183 27.4315 27.4964 25.755C28.8154 24.1439 29.6597 22.2383 29.9453 20.2278C30.0912 19.2343 30.0993 18.2274 29.9693 17.232C29.8317 16.218 29.5549 15.2248 29.1458 14.2767C28.7251 13.2969 28.1637 12.3751 27.4772 11.5366C26.7992 10.7 26.0019 9.95388 25.1074 9.31898C24.834 9.14157 24.6018 8.91442 24.4246 8.65115C24.2475 8.38789 24.1291 8.09392 24.0765 7.78689C24.024 7.47985 24.0383 7.16606 24.1188 6.86434C24.1992 6.56261 24.344 6.27916 24.5446 6.03097C24.7451 5.78279 24.9973 5.57498 25.2859 5.42001C25.5746 5.26504 25.8937 5.16609 26.2243 5.1291C26.5549 5.09212 26.89 5.11785 27.2097 5.20476C27.5294 5.29167 27.8269 5.43797 28.0846 5.63489C29.3389 6.52433 30.4569 7.56999 31.4075 8.74271C32.3656 9.9135 33.1491 11.2004 33.7364 12.5681C34.3003 13.8829 34.6819 15.2596 34.872 16.6647C35.3375 20.2415 34.5256 23.8617 32.5625 26.9634C30.5993 30.065 27.5947 32.4747 24.015 33.8183C22.608 34.3416 21.1358 34.6964 19.6333 34.8744C18.9245 34.9575 18.2109 34.9972 17.4965 34.9978ZM17.5013 18.2097C16.8459 18.2097 16.2172 17.9667 15.7535 17.534C15.2898 17.1014 15.029 16.5145 15.0284 15.9024V2.30957C15.0284 1.69703 15.2889 1.10958 15.7527 0.676456C16.2164 0.243329 16.8454 0 17.5013 0C18.1572 0 18.7862 0.243329 19.25 0.676456C19.7137 1.10958 19.9743 1.69703 19.9743 2.30957V15.9024C19.9743 16.5149 19.7137 17.1023 19.25 17.5355C18.7862 17.9686 18.1572 18.2119 17.5013 18.2119V18.2097Z" fill="#F5F5F5"/>
</svg>
