<svg width="50" height="50" viewBox="0 0 50 50" fill="none" xmlns="http://www.w3.org/2000/svg">
<path fill-rule="evenodd" clip-rule="evenodd" d="M25 3.70369C13.2384 3.70369 3.7037 13.2383 3.7037 25.0001C3.7037 36.7615 13.2384 46.2963 25 46.2963C36.7615 46.2963 46.2962 36.7615 46.2962 25.0001C46.2962 13.2383 36.7615 3.70369 25 3.70369ZM0 25.0001C0 11.1929 11.1929 0 25 0C38.807 0 50 11.1929 50 25.0001C50 38.807 38.807 50 25 50C11.1929 50 0 38.807 0 25.0001Z" fill="black"/>
<path d="M25 23C24.6046 23 24.2177 23.1174 23.8889 23.3371C23.56 23.5568 23.3037 23.8691 23.1523 24.2345C23.0009 24.6 22.9611 25.0023 23.0383 25.3903C23.1157 25.7783 23.306 26.1345 23.5857 26.4143C23.8654 26.694 24.222 26.8845 24.6097 26.9617C24.9977 27.0388 25.4 26.9991 25.7654 26.8477C26.1309 26.6963 26.4431 26.44 26.6629 26.1111C26.8826 25.7823 27 25.3957 27 25C27 24.4697 26.7891 23.9608 26.4143 23.5857C26.0391 23.2108 25.5306 23 25 23ZM26 5C35 5 35.2 12.14 30.46 14.5C29.5794 15.0222 28.8294 15.7387 28.268 16.5949C27.7066 17.451 27.348 18.4242 27.22 19.44C28.1763 19.8368 29.0209 20.4617 29.68 21.26C37 17.26 45 18.84 45 26C45 35 37.84 35.2 35.5 30.46C34.9626 29.5797 34.2343 28.8314 33.3689 28.2708C32.5034 27.71 31.5229 27.3508 30.5 27.22C30.0983 28.1737 29.4743 29.0171 28.68 29.68C32.68 37.06 31.08 45 23.92 45C15 45 14.78 37.84 19.52 35.48C20.3863 34.9508 21.1257 34.2377 21.6857 33.3908C22.2457 32.544 22.6126 31.5846 22.76 30.58C21.7797 30.1966 20.9174 29.562 20.26 28.74C12.88 32.7 5 31.14 5 24C5 15 12.08 14.78 14.44 19.52C14.9699 20.3965 15.6914 21.1417 16.5504 21.6994C17.4095 22.2568 18.3837 22.6128 19.4 22.74C19.7851 21.7774 20.4203 20.9348 21.24 20.3C17.26 13 18.84 5 25.96 5H26Z" fill="black"/>
</svg>
