<svg width="60" height="60" viewBox="0 0 60 60" fill="none" xmlns="http://www.w3.org/2000/svg">
<path fill-rule="evenodd" clip-rule="evenodd" d="M30 4.44443C15.8861 4.44443 4.44444 15.886 4.44444 30.0001C4.44444 44.1138 15.8861 55.5555 30 55.5555C44.1138 55.5555 55.5555 44.1138 55.5555 30.0001C55.5555 15.886 44.1138 4.44443 30 4.44443ZM0 30.0001C0 13.4314 13.4314 0 30 0C46.5684 0 60 13.4314 60 30.0001C60 46.5684 46.5684 60 30 60C13.4314 60 0 46.5684 0 30.0001Z" fill="black"/>
<path d="M30 27.5C29.5057 27.5 29.0221 27.6467 28.6111 27.9214C28.2 28.196 27.8796 28.5864 27.6904 29.0432C27.5011 29.5 27.4514 30.0028 27.5479 30.4878C27.6446 30.9728 27.8825 31.4182 28.2321 31.7678C28.5818 32.1175 29.0275 32.3557 29.5121 32.4521C29.9971 32.5485 30.5 32.4989 30.9568 32.3096C31.4136 32.1203 31.8039 31.8 32.0786 31.3889C32.3532 30.9778 32.5 30.4946 32.5 30C32.5 29.3371 32.2364 28.701 31.7679 28.2321C31.2989 27.7635 30.6632 27.5 30 27.5ZM31.25 5C42.5 5 42.75 13.925 36.825 16.875C35.7243 17.5277 34.7868 18.4234 34.085 19.4936C33.3832 20.5638 32.935 21.7802 32.775 23.05C33.9704 23.546 35.0261 24.3271 35.85 25.325C45 20.325 55 22.3 55 31.25C55 42.5 46.05 42.75 43.125 36.825C42.4532 35.7246 41.5429 34.7893 40.4611 34.0885C39.3793 33.3875 38.1536 32.9385 36.875 32.775C36.3729 33.9671 35.5929 35.0214 34.6 35.85C39.6 45.075 37.6 55 28.65 55C17.5 55 17.225 46.05 23.15 43.1C24.2329 42.4386 25.1571 41.5471 25.8571 40.4886C26.5571 39.43 27.0157 38.2307 27.2 36.975C25.9746 36.4957 24.8968 35.7025 24.075 34.675C14.85 39.625 5 37.675 5 28.75C5 17.5 13.85 17.225 16.8 23.15C17.4623 24.2457 18.3643 25.1771 19.438 25.8742C20.5119 26.571 21.7297 27.016 23 27.175C23.4814 25.9717 24.2754 24.9185 25.3 24.125C20.325 15 22.3 5 31.2 5H31.25Z" fill="black"/>
</svg>
