<svg width="70" height="70" viewBox="0 0 70 70" fill="none" xmlns="http://www.w3.org/2000/svg">
<path fill-rule="evenodd" clip-rule="evenodd" d="M35 5.18517C18.5337 5.18517 5.18518 18.5337 5.18518 35.0001C5.18518 51.4661 18.5337 64.8148 35 64.8148C51.4661 64.8148 64.8148 51.4661 64.8148 35.0001C64.8148 18.5337 51.4661 5.18517 35 5.18517ZM0 35.0001C0 15.67 15.67 0 35 0C54.3298 0 70 15.67 70 35.0001C70 54.3298 54.3298 70 35 70C15.67 70 0 54.3298 0 35.0001Z" fill="black"/>
<path d="M35 32C34.4069 32 33.8266 32.1761 33.3333 32.5057C32.84 32.8352 32.4556 33.3037 32.2284 33.8518C32.0013 34.4 31.9417 35.0034 32.0574 35.5854C32.1736 36.1674 32.459 36.7018 32.8786 37.1214C33.2981 37.541 33.833 37.8268 34.4146 37.9425C34.9966 38.0582 35.6 37.9987 36.1481 37.7715C36.6963 37.5444 37.1647 37.16 37.4943 36.6667C37.8239 36.1734 38 35.5935 38 35C38 34.2045 37.6837 33.4412 37.1214 32.8785C36.5587 32.3162 35.7959 32 35 32ZM36.5 5C50 5 50.3 15.71 43.19 19.25C41.8691 20.0333 40.7441 21.1081 39.902 22.3923C39.0599 23.6765 38.522 25.1362 38.33 26.6599C39.7644 27.2552 41.0313 28.1925 42.02 29.3899C53 23.39 65 25.76 65 36.5C65 50 54.26 50.3 50.75 43.19C49.9439 41.8695 48.8514 40.7471 47.5533 39.9062C46.2551 39.065 44.7843 38.5262 43.25 38.33C42.6474 39.7605 41.7114 41.0257 40.52 42.02C46.52 53.09 44.12 65 33.38 65C20 65 19.67 54.26 26.78 50.72C28.0794 49.9263 29.1886 48.8565 30.0286 47.5863C30.8686 46.316 31.4189 44.8768 31.64 43.37C30.1696 42.7948 28.8761 41.843 27.89 40.61C16.82 46.55 5 44.21 5 33.5C5 20 15.62 19.67 19.16 26.7799C19.9548 28.0948 21.0371 29.2125 22.3256 30.0491C23.6142 30.8852 25.0756 31.4192 26.6 31.61C27.1777 30.1661 28.1304 28.9022 29.36 27.9499C23.39 17 25.76 5 36.44 5H36.5Z" fill="black"/>
</svg>
