<svg width="35" height="31" viewBox="0 0 35 31" fill="none" xmlns="http://www.w3.org/2000/svg">
<path d="M0 31L17.5 0L35 31H0ZM5.48864 27.7368H29.5114L17.5 6.52632L5.48864 27.7368ZM17.5 26.1053C17.9508 26.1053 18.3289 25.9486 18.6343 25.6354C18.9398 25.3221 19.092 24.9349 19.0909 24.4737C19.0898 24.0125 18.9371 23.6253 18.6327 23.312C18.3283 22.9987 17.9508 22.8421 17.5 22.8421C17.0492 22.8421 16.6717 22.9987 16.3673 23.312C16.0629 23.6253 15.9102 24.0125 15.9091 24.4737C15.908 24.9349 16.0608 25.3226 16.3673 25.637C16.6738 25.9513 17.0514 26.1074 17.5 26.1053ZM15.9091 21.2105H19.0909V13.0526H15.9091V21.2105Z" fill="black"/>
</svg>
